<mxfile host="app.diagrams.net" agent="Mozilla/5.0 (Windows NT 10.0; Win64; x64) AppleWebKit/537.36 (KHTML, like Gecko) Chrome/132.0.0.0 Safari/537.36" version="26.0.6">
  <diagram name="PÃ¡gina-1" id="782GMdQOQL-iKLCWjUjy">
    <mxGraphModel dx="1050" dy="591" grid="1" gridSize="10" guides="1" tooltips="1" connect="1" arrows="1" fold="1" page="1" pageScale="1" pageWidth="827" pageHeight="1169" math="0" shadow="0">
      <root>
        <mxCell id="0" />
        <mxCell id="1" parent="0" />
        <mxCell id="gWOZPbGBoViHKmuhaCXJ-14" style="edgeStyle=orthogonalEdgeStyle;rounded=0;orthogonalLoop=1;jettySize=auto;html=1;" edge="1" parent="1" source="gWOZPbGBoViHKmuhaCXJ-1" target="gWOZPbGBoViHKmuhaCXJ-2">
          <mxGeometry relative="1" as="geometry" />
        </mxCell>
        <mxCell id="gWOZPbGBoViHKmuhaCXJ-15" style="edgeStyle=orthogonalEdgeStyle;rounded=0;orthogonalLoop=1;jettySize=auto;html=1;" edge="1" parent="1" source="gWOZPbGBoViHKmuhaCXJ-1" target="gWOZPbGBoViHKmuhaCXJ-3">
          <mxGeometry relative="1" as="geometry" />
        </mxCell>
        <mxCell id="gWOZPbGBoViHKmuhaCXJ-1" value="Score" style="rounded=1;whiteSpace=wrap;html=1;fillColor=#fff2cc;strokeColor=#d6b656;" vertex="1" parent="1">
          <mxGeometry x="348" y="230" width="120" height="60" as="geometry" />
        </mxCell>
        <mxCell id="gWOZPbGBoViHKmuhaCXJ-17" style="edgeStyle=orthogonalEdgeStyle;rounded=0;orthogonalLoop=1;jettySize=auto;html=1;entryX=0.5;entryY=0;entryDx=0;entryDy=0;" edge="1" parent="1" source="gWOZPbGBoViHKmuhaCXJ-2" target="gWOZPbGBoViHKmuhaCXJ-4">
          <mxGeometry relative="1" as="geometry">
            <Array as="points">
              <mxPoint x="334" y="400" />
              <mxPoint x="220" y="400" />
            </Array>
          </mxGeometry>
        </mxCell>
        <mxCell id="gWOZPbGBoViHKmuhaCXJ-18" style="edgeStyle=orthogonalEdgeStyle;rounded=0;orthogonalLoop=1;jettySize=auto;html=1;entryX=0.5;entryY=0;entryDx=0;entryDy=0;" edge="1" parent="1" source="gWOZPbGBoViHKmuhaCXJ-2" target="gWOZPbGBoViHKmuhaCXJ-5">
          <mxGeometry relative="1" as="geometry" />
        </mxCell>
        <mxCell id="gWOZPbGBoViHKmuhaCXJ-19" style="edgeStyle=orthogonalEdgeStyle;rounded=0;orthogonalLoop=1;jettySize=auto;html=1;" edge="1" parent="1" source="gWOZPbGBoViHKmuhaCXJ-2" target="gWOZPbGBoViHKmuhaCXJ-6">
          <mxGeometry relative="1" as="geometry" />
        </mxCell>
        <mxCell id="gWOZPbGBoViHKmuhaCXJ-20" style="edgeStyle=orthogonalEdgeStyle;rounded=0;orthogonalLoop=1;jettySize=auto;html=1;entryX=0.5;entryY=0;entryDx=0;entryDy=0;" edge="1" parent="1" source="gWOZPbGBoViHKmuhaCXJ-2" target="gWOZPbGBoViHKmuhaCXJ-7">
          <mxGeometry relative="1" as="geometry" />
        </mxCell>
        <mxCell id="gWOZPbGBoViHKmuhaCXJ-2" value="Player" style="rounded=1;whiteSpace=wrap;html=1;fillColor=#dae8fc;strokeColor=#6c8ebf;" vertex="1" parent="1">
          <mxGeometry x="274" y="330" width="120" height="60" as="geometry" />
        </mxCell>
        <mxCell id="gWOZPbGBoViHKmuhaCXJ-21" style="edgeStyle=orthogonalEdgeStyle;rounded=0;orthogonalLoop=1;jettySize=auto;html=1;" edge="1" parent="1" source="gWOZPbGBoViHKmuhaCXJ-3" target="gWOZPbGBoViHKmuhaCXJ-11">
          <mxGeometry relative="1" as="geometry">
            <Array as="points">
              <mxPoint x="494" y="400" />
              <mxPoint x="608" y="400" />
            </Array>
          </mxGeometry>
        </mxCell>
        <mxCell id="gWOZPbGBoViHKmuhaCXJ-22" style="edgeStyle=orthogonalEdgeStyle;rounded=0;orthogonalLoop=1;jettySize=auto;html=1;entryX=0.5;entryY=0;entryDx=0;entryDy=0;" edge="1" parent="1" source="gWOZPbGBoViHKmuhaCXJ-3" target="gWOZPbGBoViHKmuhaCXJ-10">
          <mxGeometry relative="1" as="geometry" />
        </mxCell>
        <mxCell id="gWOZPbGBoViHKmuhaCXJ-23" style="edgeStyle=orthogonalEdgeStyle;rounded=0;orthogonalLoop=1;jettySize=auto;html=1;entryX=0.5;entryY=0;entryDx=0;entryDy=0;" edge="1" parent="1" source="gWOZPbGBoViHKmuhaCXJ-3" target="gWOZPbGBoViHKmuhaCXJ-9">
          <mxGeometry relative="1" as="geometry" />
        </mxCell>
        <mxCell id="gWOZPbGBoViHKmuhaCXJ-24" style="edgeStyle=orthogonalEdgeStyle;rounded=0;orthogonalLoop=1;jettySize=auto;html=1;entryX=0.5;entryY=0;entryDx=0;entryDy=0;" edge="1" parent="1" source="gWOZPbGBoViHKmuhaCXJ-3" target="gWOZPbGBoViHKmuhaCXJ-8">
          <mxGeometry relative="1" as="geometry" />
        </mxCell>
        <mxCell id="gWOZPbGBoViHKmuhaCXJ-3" value="Player" style="rounded=1;whiteSpace=wrap;html=1;fillColor=#dae8fc;strokeColor=#6c8ebf;" vertex="1" parent="1">
          <mxGeometry x="434" y="330" width="120" height="60" as="geometry" />
        </mxCell>
        <mxCell id="gWOZPbGBoViHKmuhaCXJ-4" value="Frame" style="rounded=1;whiteSpace=wrap;html=1;fillColor=#d5e8d4;strokeColor=#82b366;" vertex="1" parent="1">
          <mxGeometry x="200" y="420" width="40" height="70" as="geometry" />
        </mxCell>
        <mxCell id="gWOZPbGBoViHKmuhaCXJ-5" value="Frame" style="rounded=1;whiteSpace=wrap;html=1;fillColor=#d5e8d4;strokeColor=#82b366;" vertex="1" parent="1">
          <mxGeometry x="250" y="420" width="40" height="70" as="geometry" />
        </mxCell>
        <mxCell id="gWOZPbGBoViHKmuhaCXJ-26" style="edgeStyle=orthogonalEdgeStyle;rounded=0;orthogonalLoop=1;jettySize=auto;html=1;" edge="1" parent="1" source="gWOZPbGBoViHKmuhaCXJ-6" target="gWOZPbGBoViHKmuhaCXJ-13">
          <mxGeometry relative="1" as="geometry" />
        </mxCell>
        <mxCell id="gWOZPbGBoViHKmuhaCXJ-6" value="Frame" style="rounded=1;whiteSpace=wrap;html=1;fillColor=#d5e8d4;strokeColor=#82b366;" vertex="1" parent="1">
          <mxGeometry x="300" y="420" width="40" height="70" as="geometry" />
        </mxCell>
        <mxCell id="gWOZPbGBoViHKmuhaCXJ-7" value="Frame" style="rounded=1;whiteSpace=wrap;html=1;fillColor=#d5e8d4;strokeColor=#82b366;" vertex="1" parent="1">
          <mxGeometry x="354" y="420" width="40" height="70" as="geometry" />
        </mxCell>
        <mxCell id="gWOZPbGBoViHKmuhaCXJ-8" value="Frame" style="rounded=1;whiteSpace=wrap;html=1;fillColor=#d5e8d4;strokeColor=#82b366;" vertex="1" parent="1">
          <mxGeometry x="434" y="420" width="40" height="70" as="geometry" />
        </mxCell>
        <mxCell id="gWOZPbGBoViHKmuhaCXJ-9" value="Frame" style="rounded=1;whiteSpace=wrap;html=1;fillColor=#d5e8d4;strokeColor=#82b366;" vertex="1" parent="1">
          <mxGeometry x="484" y="420" width="40" height="70" as="geometry" />
        </mxCell>
        <mxCell id="gWOZPbGBoViHKmuhaCXJ-10" value="Frame" style="rounded=1;whiteSpace=wrap;html=1;fillColor=#d5e8d4;strokeColor=#82b366;" vertex="1" parent="1">
          <mxGeometry x="534" y="420" width="40" height="70" as="geometry" />
        </mxCell>
        <mxCell id="gWOZPbGBoViHKmuhaCXJ-11" value="Frame" style="rounded=1;whiteSpace=wrap;html=1;fillColor=#d5e8d4;strokeColor=#82b366;" vertex="1" parent="1">
          <mxGeometry x="588" y="420" width="40" height="70" as="geometry" />
        </mxCell>
        <mxCell id="gWOZPbGBoViHKmuhaCXJ-12" value="Roll" style="rounded=1;whiteSpace=wrap;html=1;fillColor=#e1d5e7;strokeColor=#9673a6;" vertex="1" parent="1">
          <mxGeometry x="274" y="520" width="40" height="70" as="geometry" />
        </mxCell>
        <mxCell id="gWOZPbGBoViHKmuhaCXJ-13" value="Roll" style="rounded=1;whiteSpace=wrap;html=1;fillColor=#e1d5e7;strokeColor=#9673a6;" vertex="1" parent="1">
          <mxGeometry x="334" y="520" width="40" height="70" as="geometry" />
        </mxCell>
        <mxCell id="gWOZPbGBoViHKmuhaCXJ-25" style="edgeStyle=orthogonalEdgeStyle;rounded=0;orthogonalLoop=1;jettySize=auto;html=1;entryX=0.452;entryY=0.046;entryDx=0;entryDy=0;entryPerimeter=0;" edge="1" parent="1" source="gWOZPbGBoViHKmuhaCXJ-6" target="gWOZPbGBoViHKmuhaCXJ-12">
          <mxGeometry relative="1" as="geometry" />
        </mxCell>
        <mxCell id="gWOZPbGBoViHKmuhaCXJ-29" value="&lt;h1 style=&quot;margin-top: 0px;&quot;&gt;&lt;font style=&quot;font-size: 24px;&quot;&gt;Composite design pattern&lt;/font&gt;&lt;/h1&gt;&lt;div&gt;&lt;font style=&quot;font-size: 12px;&quot;&gt;Every class implements the &quot;Scorable&quot; interface with methods that allow their scores to be calculated at an increasingly granular level.&lt;/font&gt;&lt;/div&gt;" style="text;html=1;whiteSpace=wrap;overflow=hidden;rounded=0;" vertex="1" parent="1">
          <mxGeometry x="40" y="120" width="224" height="160" as="geometry" />
        </mxCell>
        <mxCell id="gWOZPbGBoViHKmuhaCXJ-31" value="" style="edgeStyle=orthogonalEdgeStyle;rounded=0;orthogonalLoop=1;jettySize=auto;html=1;" edge="1" parent="1" source="gWOZPbGBoViHKmuhaCXJ-30" target="gWOZPbGBoViHKmuhaCXJ-1">
          <mxGeometry relative="1" as="geometry" />
        </mxCell>
        <mxCell id="gWOZPbGBoViHKmuhaCXJ-30" value="Scorable" style="rounded=1;whiteSpace=wrap;html=1;fillColor=#f8cecc;strokeColor=#b85450;" vertex="1" parent="1">
          <mxGeometry x="348" y="140" width="120" height="60" as="geometry" />
        </mxCell>
      </root>
    </mxGraphModel>
  </diagram>
</mxfile>
